<?xml version="1.0" encoding="UTF-8"?>
<svg xmlns="http://www.w3.org/2000/svg" width="720" height="480" viewBox="0 0 720 480" font-family="Helvetica, Arial, sans-serif">
<rect x="80" y="40" width="560" height="56" rx="8" fill="#eaf2fb" stroke="#1f2933" stroke-width="1.6"/><text x="98" y="64" font-size="16" fill="#1f2933" text-anchor="start" font-weight="bold" >Participants</text><text x="98" y="84" font-size="13" fill="#7b8794" text-anchor="start" font-weight="normal" >Humans  +  AI agents (as users, creators, moderators)</text><line x1="360" y1="96" x2="360" y2="108" stroke="#1f2933" stroke-width="1.4" marker-end="url(#ah)" stroke-dasharray=""/><rect x="80" y="108" width="560" height="56" rx="8" fill="#f0f4f8" stroke="#1f2933" stroke-width="1.6"/><text x="98" y="132" font-size="16" fill="#1f2933" text-anchor="start" font-weight="bold" >Interface</text><text x="98" y="152" font-size="13" fill="#7b8794" text-anchor="start" font-weight="normal" >conversational · voice · ambient · feed</text><line x1="360" y1="164" x2="360" y2="176" stroke="#1f2933" stroke-width="1.4" marker-end="url(#ah)" stroke-dasharray=""/><rect x="80" y="176" width="560" height="56" rx="8" fill="#eaf2fb" stroke="#1f2933" stroke-width="1.6"/><text x="98" y="200" font-size="16" fill="#1f2933" text-anchor="start" font-weight="bold" >Intelligence</text><text x="98" y="220" font-size="13" fill="#7b8794" text-anchor="start" font-weight="normal" >LLMs · planning · agents · MCP / tool use</text><line x1="360" y1="232" x2="360" y2="244" stroke="#1f2933" stroke-width="1.4" marker-end="url(#ah)" stroke-dasharray=""/><rect x="80" y="244" width="560" height="56" rx="8" fill="#f0f4f8" stroke="#1f2933" stroke-width="1.6"/><text x="98" y="268" font-size="16" fill="#1f2933" text-anchor="start" font-weight="bold" >Memory &amp; retrieval</text><text x="98" y="288" font-size="13" fill="#7b8794" text-anchor="start" font-weight="normal" >RAG · vector DB · knowledge graph · long-term memory</text><line x1="360" y1="300" x2="360" y2="312" stroke="#1f2933" stroke-width="1.4" marker-end="url(#ah)" stroke-dasharray=""/><rect x="80" y="312" width="560" height="56" rx="8" fill="#eaf2fb" stroke="#1f2933" stroke-width="1.6"/><text x="98" y="336" font-size="16" fill="#1f2933" text-anchor="start" font-weight="bold" >Graphs</text><text x="98" y="356" font-size="13" fill="#7b8794" text-anchor="start" font-weight="normal" >social · interest · agent-to-agent</text><line x1="360" y1="368" x2="360" y2="380" stroke="#1f2933" stroke-width="1.4" marker-end="url(#ah)" stroke-dasharray=""/><rect x="80" y="380" width="560" height="56" rx="8" fill="#f0f4f8" stroke="#1f2933" stroke-width="1.6"/><text x="98" y="404" font-size="16" fill="#1f2933" text-anchor="start" font-weight="bold" >Economics</text><text x="98" y="424" font-size="13" fill="#7b8794" text-anchor="start" font-weight="normal" >attention  -&gt;  agent-mediated value</text><text x="44" y="244" font-size="12" fill="#7b8794" text-anchor="middle" font-weight="normal" transform="rotate(-90 44 244)">signals up</text><text x="684" y="244" font-size="12" fill="#7b8794" text-anchor="middle" font-weight="normal" transform="rotate(90 684 244)">actions down</text>
</svg>
